<?xml version="1.0" encoding="utf-8"?>
<!-- Generator: Adobe Illustrator 25.2.1, SVG Export Plug-In . SVG Version: 6.00 Build 0)  -->
<svg version="1.1" id="Layer_1" xmlns="http://www.w3.org/2000/svg" xmlns:xlink="http://www.w3.org/1999/xlink" x="0px" y="0px"
	 viewBox="0 0 960 560" style="enable-background:new 0 0 960 560;" xml:space="preserve">
<style type="text/css">
	.st0{fill:#CC4129;stroke:#9B1300;stroke-width:0.75;stroke-miterlimit:10;}
	.st1{stroke:#9B1300;stroke-width:0.75;stroke-miterlimit:10;}
</style>
<g>
	<rect x="7" y="144.1" class="st0" width="36.3" height="129.4"/>
	<path class="st0" d="M144.2,144.1h34.5v129.4h-38.3l-27.4-46c-7.4-12.5-13.3-23.1-17.8-32c0.6,17.8,0.9,36.8,0.9,56.9v21.1H61.5
		V144.1h38.3l27.4,46c6.5,11.1,12.5,21.9,17.8,32.2c-0.6-17.8-0.9-36.8-0.9-57.1L144.2,144.1L144.2,144.1z"/>
	<polygon class="st0" points="295.5,176.5 233.4,176.5 233.4,193.4 291.5,193.4 291.5,223.9 233.4,223.9 233.4,273.5 197,273.5 
		197,144.1 295.5,144.1 	"/>
	<rect x="306.4" y="144.1" class="st0" width="36.3" height="129.4"/>
	<polygon class="st0" points="397.3,241.1 454.5,241.1 454.5,273.4 361,273.4 361,144.1 397.3,144.1 	"/>
	<polygon class="st0" points="554.6,144.1 554.6,176.5 516.4,176.5 516.4,273.5 480.1,273.5 480.1,176.5 441.9,176.5 441.9,144.1 	
		"/>
	<path class="st0" d="M675.6,260.4l-0.7-17.3c-0.4-8.6-1.8-15.2-4.3-19.8c-2.4-4.6-7-8.1-13.5-10.5c6.6-3,11.5-7.1,15-12.4
		c3.5-5.3,5.2-11.3,5.2-18c0-11.1-3.8-20.3-11.6-27.6c-7.8-7.1-20-10.7-36.5-10.7h-63.6v129.4h36.3v-44.7h18.9
		c6.1,0,10.5,1.1,13.2,3.5c2.8,2.4,4.3,6.9,4.5,13.4l0.5,14.7c0.2,6,1,10.3,2.5,13.1h37.4C676.9,270.1,675.8,265.7,675.6,260.4z
		 M623.7,202.2h-21.8v-29.8h21.8c10.8,0,16.2,5,16.2,14.9C639.9,197.2,634.5,202.2,623.7,202.2z"/>
	<path class="st0" d="M802.5,159.6c-12.6-12.2-29-18.3-49.2-18.3s-36.6,6.1-49.2,18.3c-12.5,12.3-18.7,28.7-18.7,49.2
		c0,20.6,6.2,37,18.7,49.1c12.4,12.3,28.9,18.5,49.2,18.5s36.7-6.1,49.2-18.5c12.5-12.2,18.7-28.5,18.7-49.1
		C821.2,188.4,815,172,802.5,159.6z M775.3,235.4c-5.5,6.4-12.8,9.6-22,9.6s-16.5-3.3-22-9.6c-5.5-6.3-8.2-15.1-8.2-26.5
		c0-11.1,2.7-19.9,8.2-26.4s12.8-9.7,22-9.7s16.5,3.2,22,9.7c5.5,6.4,8.2,15.3,8.2,26.4C783.5,220.3,780.8,229.1,775.3,235.4z"/>
	<rect x="825" y="237.5" class="st0" width="37.1" height="36"/>
</g>
<g>
	<path class="st1" d="M89.7,295.6h34.5V425H85.9l-27.4-46c-7.4-12.5-13.3-23.1-17.8-32c0.6,17.8,0.9,36.8,0.9,56.9V425H7V295.6h38.3
		l27.4,46c6.5,11.1,12.5,21.9,17.8,32.2c-0.6-17.8-0.9-36.8-0.9-57.1L89.7,295.6L89.7,295.6z"/>
	<path class="st1" d="M244.6,328h-65.8v17h60v30.2h-60v17.4h65.8V425H142.5V295.6h102.1V328z"/>
	<path class="st1" d="M363.7,295.6V328h-38.2v97h-36.3v-97H251v-32.4H363.7z"/>
	<path class="st1" d="M513.3,295.6h38L516.4,425h-40.7l-8-38.3c-3.8-18.3-6.7-34-8.7-47.2c-2.3,14.3-5.3,30-8.9,47.2l-8,38.3h-40.7
		l-34.9-129.4h38l8.4,37.3c5.3,23.6,9,40.9,10.9,51.8c2.8-17,6-34.2,9.6-51.8l7.6-37.3h35.8l7.6,37.3c3.6,17.6,6.8,34.8,9.6,51.8
		c2.1-10.9,5.7-28.2,10.9-51.8L513.3,295.6z"/>
	<path class="st1" d="M569.2,409.4c-12.5-12.1-18.7-28.5-18.7-49.1c0-20.5,6.2-36.9,18.7-49.2c12.6-12.2,29-18.3,49.2-18.3
		s36.6,6.1,49.2,18.3c12.5,12.4,18.7,28.8,18.7,49.2c0,20.6-6.2,36.9-18.7,49.1c-12.5,12.4-28.9,18.5-49.2,18.5
		S581.6,421.7,569.2,409.4z M618.4,396.5c9.2,0,16.5-3.2,22-9.6c5.5-6.3,8.2-15.1,8.2-26.5c0-11.1-2.7-20-8.2-26.4s-12.8-9.7-22-9.7
		s-16.5,3.2-22,9.7s-8.2,15.3-8.2,26.4c0,11.4,2.7,20.2,8.2,26.5C601.9,393.3,609.2,396.5,618.4,396.5z"/>
	<path class="st1" d="M809.3,411.9c0.2,5.3,1.3,9.7,3.3,13.1h-37.4c-1.5-2.8-2.3-7.1-2.5-13.1l-0.5-14.7c-0.2-6.5-1.7-11-4.5-13.4
		c-2.7-2.4-7.1-3.5-13.2-3.5h-18.9V425h-36.3V295.6h63.6c16.5,0,28.7,3.6,36.5,10.7c7.8,7.3,11.6,16.5,11.6,27.6
		c0,6.7-1.7,12.7-5.2,18s-8.4,9.4-15,12.4c6.5,2.4,11.1,5.9,13.5,10.5c2.5,4.6,3.9,11.2,4.3,19.8L809.3,411.9z M735.5,353.8h21.8
		c10.8,0,16.2-5,16.2-14.9s-5.4-14.9-16.2-14.9h-21.8V353.8z"/>
	<path class="st1" d="M952,295.6l-50.9,52.9L952,425h-42.9l-33.6-52l-14.7,14.9V425h-36.3V295.6h36.3v51.2l47.2-51.2H952z"/>
</g>
</svg>
